<?xml version="1.0"?>
<svg version="1.1" xmlns="http://www.w3.org/2000/svg" width="400" height="200" style="border: dashed 2px #aaa"><path fill="#ffffff" d="M41.4,118.4l0-20l-1.2,3l-6.2,12.6l-3.2,0.2l-6.2-13l-1-2.8l0,20l3.8,0.8l0,2.4l-10.8,0l0-2.4l3.4-0.8l0-21.6l-3.4-0.8l0-2.2l9-0.2l7.24,16l7.56-15.8l8.4-0.2l0,2.4l-3.4,0.8l0,21.6l3.4,0.8l0,2.4l-11.2,0l0-2.4z M56.344,106.6l-0.2-5s4.4-1.6,7.8-1.6c4.64,0,7.4,1.6,7.4,6.2l0,12.2l3.2,0.8l0,2.2l-6.2,0.2l-0.84-2.8c-1.36,1.36-3.76,3.2-6.56,3.2c-3.8,0-6-2.2-6-6c0-4.6,3.6-6.2,9.2-6.2l3.2,0l0-3.2c0-2.4-1.4-3.6-3.8-3.6s-4.04,0.6-4.04,0.6l-0.56,3l-2.6,0z M67.344,112.4l-2.8,0c-4,0-5.52,1-5.52,3.4c0,1.8,1.12,3,2.92,3c3,0,5.4-3.2,5.4-3.2l0-3.2z M83.128,115.2l0.44,3.44s1.2,0.36,3.36,0.36c2.4,0,4.52-0.68,4.52-3.16c0-4.32-11.16-2.32-11.16-9.6c0-4.16,3.2-6.24,7.32-6.24c3.16,0,6.84,1.2,6.84,1.2l-0.12,5.4l-2.6,0l-0.64-3.12s-1.24-0.48-3.24-0.48c-2.04,0-3.56,0.64-3.56,2.68c0,4.28,11.16,2.64,11.16,9.48c0,4.6-4,6.84-8.8,6.84c-3.68,0-6.32-0.88-6.32-0.88l0-5.92l2.8,0z M111.792,100c6,0,9.4,4.2,9.4,10.6c0,6.8-4,11.4-10,11.4s-9.6-3.6-9.6-10.8c0-6.8,4.2-11.2,10.2-11.2z M111.592,103.2c-4,0-5.8,2.6-5.8,7.8c0,4.8,1.6,7.8,5.6,7.8s5.6-2.8,5.6-8c0-4.4-1.4-7.6-5.4-7.6z M133.736,100.4l0.36,2.84c0.96-0.84,4.12-3.24,7.44-3.24c4.4,0,6.4,2.8,6.4,7.2l0,11.2l3,1l0,2.2l-9.6,0l0-2.2l2.6-1l0-10.8c0-2.8-1-4.2-3.6-4.2c-3.4,0-5.8,3.2-5.8,3.2l0,11.8l2.6,1l0,2.2l-10,0l0-2.2l3.4-1l0-14.8l-3.4-0.8l0-2.2z M188.424,102l-1.08-4.6s-2.12-0.8-5.12-0.8c-5.4,0-8.4,4-8.4,11.4c0,7.2,3.6,10.4,8.6,10.4c4.2,0,8-3.2,8-3.2l1.6,2.6s-4,4.2-10,4.2c-8,0-12.8-4.8-12.8-13.8c0-9.2,5.2-15,13.4-15c4.4,0,9,2,9,2l-0.2,6.8l-3,0z M199.368,106.6l-0.2-5s4.4-1.6,7.8-1.6c4.64,0,7.4,1.6,7.4,6.2l0,12.2l3.2,0.8l0,2.2l-6.2,0.2l-0.84-2.8c-1.36,1.36-3.76,3.2-6.56,3.2c-3.8,0-6-2.2-6-6c0-4.6,3.6-6.2,9.2-6.2l3.2,0l0-3.2c0-2.4-1.4-3.6-3.8-3.6s-4.04,0.6-4.04,0.6l-0.56,3l-2.6,0z M210.368,112.4l-2.8,0c-4,0-5.52,1-5.52,3.4c0,1.8,1.12,3,2.92,3c3,0,5.4-3.2,5.4-3.2l0-3.2z M236.112,100.6l0,3l-5.8,0l0,12.84c0,1.84,0.88,2.44,2,2.44c0.96,0,2.08-0.44,3.12-1l1.08,2.12c-1.8,1.32-3.6,2-5.6,2c-2.4,0-4.6-1.32-4.6-5.8l0-12.6l-4,0l0-2.6l4-0.4l0-5.04l4-0.8l0,5.84l5.8,0z M248.456,90.8l0,12.08c1.24-1.04,4.04-2.88,7-2.88c4.4,0,6.4,2.8,6.4,7.2l0,11.2l3,1l0,2.2l-9.6,0l0-2.2l2.6-0.96l0-10.84c0-2.8-0.88-4.2-3.48-4.2c-3.4,0-5.92,3.2-5.92,3.2l0,11.8l2.6,1l0,2.2l-10,0l0-2.2l3.4-1l0-24.4l-3.4-0.8l0-2.2z M280.6,100c6,0,9.4,4.2,9.4,10.6c0,6.8-4,11.4-10,11.4s-9.6-3.6-9.6-10.8c0-6.8,4.2-11.2,10.2-11.2z M280.4,103.2c-4,0-5.8,2.6-5.8,7.8c0,4.8,1.6,7.8,5.6,7.8s5.6-2.8,5.6-8c0-4.4-1.4-7.6-5.4-7.6z M302.544,100.4l0.36,2.92c1-1.12,3.32-3.32,6.04-3.32c2,0,3.6,0.6,3.6,0.6l-0.2,5.8l-2.6,0l-0.6-3c-3,0-4.92,1.96-5.8,3.12l0,11.88l4,1l0,2.2l-11.4,0l0-2.2l3.4-1l0-14.8l-3.4-0.8l0-2.2z M318.888,106.6l-0.2-5s4.4-1.6,7.8-1.6c4.64,0,7.4,1.6,7.4,6.2l0,12.2l3.2,0.8l0,2.2l-6.2,0.2l-0.84-2.8c-1.36,1.36-3.76,3.2-6.56,3.2c-3.8,0-6-2.2-6-6c0-4.6,3.6-6.2,9.2-6.2l3.2,0l0-3.2c0-2.4-1.4-3.6-3.8-3.6s-4.04,0.6-4.04,0.6l-0.56,3l-2.6,0z M329.888,112.4l-2.8,0c-4,0-5.52,1-5.52,3.4c0,1.8,1.12,3,2.92,3c3,0,5.4-3.2,5.4-3.2l0-3.2z M353.112,119.4l0,2.2l-11.08,0l0-2.2l3.4-1l0-24.4l-3.4-0.8l0-2.2l7.48-0.2l0,27.6z M368.136,119.4l0,2.2l-11.08,0l0-2.2l3.4-1l0-24.4l-3.4-0.8l0-2.2l7.48-0.2l0,27.6z"/><path fill="#" d=""/></svg>
